<svg xmlns="http://www.w3.org/2000/svg" width="1600" height="1360" viewBox="0 0 1600 1360" role="img"><title>Wiring bang-bang tiga sensor Arduino Uno dan L298N</title><g font-family="Segoe UI,Arial,sans-serif"><rect x="0" y="0" width="1600" height="1360" rx="0" fill="#f5f7fa" stroke="none"/><text x="70" y="65" font-size="32" fill="#24354a" text-anchor="start" font-weight="700">ROBOIMPACT / BANG-BANG</text><text x="70" y="102" font-size="20" fill="#24354a" text-anchor="start" font-weight="400">Wiring dasar · Arduino Uno R3 · L298N · 3 sensor analog · 2 sel Li-ion seri</text><text x="70" y="135" font-size="16" fill="#65768a" text-anchor="start" font-weight="400">Ilustrasi modul; posisi terminal digambar ulang. Ikuti nama pin, bukan posisi gambar.</text><text x="210" y="190" font-size="18" fill="#24354a" text-anchor="middle" font-weight="700">SENSOR KIRI</text><rect x="100" y="210" width="220" height="200" rx="12" fill="#245b9b" stroke="none"/><rect x="122" y="232" width="75" height="52" rx="5" fill="#d5dcea" stroke="none"/><rect x="131" y="242" width="56" height="31" rx="3" fill="#667c9a" stroke="none"/><circle cx="160" cy="257" r="13" fill="#b5bfcc"/><rect x="222" y="243" width="72" height="35" rx="3" fill="#142a48" stroke="none"/><text x="210" y="325" font-size="20" fill="#fff" text-anchor="middle" font-weight="700">IR + LM393</text><text x="210" y="354" font-size="15" fill="#c7ddf6" text-anchor="middle" font-weight="400">Modul dengan AO</text><circle cx="140" cy="410" r="5" fill="#dce6ee" stroke="#182436" stroke-width="1.5"/><text x="140" y="398" font-size="14" fill="#fff" text-anchor="middle" font-weight="400">VCC</text><circle cx="200" cy="410" r="5" fill="#dce6ee" stroke="#182436" stroke-width="1.5"/><text x="200" y="398" font-size="14" fill="#fff" text-anchor="middle" font-weight="400">GND</text><circle cx="260" cy="410" r="5" fill="#dce6ee" stroke="#182436" stroke-width="1.5"/><text x="260" y="398" font-size="14" fill="#fff" text-anchor="middle" font-weight="400">AO</text><circle cx="295" cy="410" r="5" fill="#dce6ee" stroke="#182436" stroke-width="1.5"/><text x="295" y="398" font-size="14" fill="#fff" text-anchor="middle" font-weight="400">DO</text><text x="295" y="435" font-size="12" fill="#65768a" text-anchor="middle" font-weight="400">NC</text><polyline points="140,410 140,465" fill="none" stroke="#f5f7fa" stroke-width="8" stroke-linejoin="round"/><polyline points="140,410 140,465" fill="none" stroke="#d94c4c" stroke-width="4" stroke-linejoin="round"/><polyline points="200,410 200,495" fill="none" stroke="#f5f7fa" stroke-width="8" stroke-linejoin="round"/><polyline points="200,410 200,495" fill="none" stroke="#344150" stroke-width="4" stroke-linejoin="round"/><polyline points="260,410 260,520 210,520 210,580" fill="none" stroke="#f5f7fa" stroke-width="8" stroke-linejoin="round"/><polyline points="260,410 260,520 210,520 210,580" fill="none" stroke="#367ee6" stroke-width="4" stroke-linejoin="round"/><text x="490" y="190" font-size="18" fill="#24354a" text-anchor="middle" font-weight="700">SENSOR TENGAH</text><rect x="380" y="210" width="220" height="200" rx="12" fill="#245b9b" stroke="none"/><rect x="402" y="232" width="75" height="52" rx="5" fill="#d5dcea" stroke="none"/><rect x="411" y="242" width="56" height="31" rx="3" fill="#667c9a" stroke="none"/><circle cx="440" cy="257" r="13" fill="#b5bfcc"/><rect x="502" y="243" width="72" height="35" rx="3" fill="#142a48" stroke="none"/><text x="490" y="325" font-size="20" fill="#fff" text-anchor="middle" font-weight="700">IR + LM393</text><text x="490" y="354" font-size="15" fill="#c7ddf6" text-anchor="middle" font-weight="400">Modul dengan AO</text><circle cx="420" cy="410" r="5" fill="#dce6ee" stroke="#182436" stroke-width="1.5"/><text x="420" y="398" font-size="14" fill="#fff" text-anchor="middle" font-weight="400">VCC</text><circle cx="480" cy="410" r="5" fill="#dce6ee" stroke="#182436" stroke-width="1.5"/><text x="480" y="398" font-size="14" fill="#fff" text-anchor="middle" font-weight="400">GND</text><circle cx="540" cy="410" r="5" fill="#dce6ee" stroke="#182436" stroke-width="1.5"/><text x="540" y="398" font-size="14" fill="#fff" text-anchor="middle" font-weight="400">AO</text><circle cx="575" cy="410" r="5" fill="#dce6ee" stroke="#182436" stroke-width="1.5"/><text x="575" y="398" font-size="14" fill="#fff" text-anchor="middle" font-weight="400">DO</text><text x="575" y="435" font-size="12" fill="#65768a" text-anchor="middle" font-weight="400">NC</text><polyline points="420,410 420,465" fill="none" stroke="#f5f7fa" stroke-width="8" stroke-linejoin="round"/><polyline points="420,410 420,465" fill="none" stroke="#d94c4c" stroke-width="4" stroke-linejoin="round"/><polyline points="480,410 480,495" fill="none" stroke="#f5f7fa" stroke-width="8" stroke-linejoin="round"/><polyline points="480,410 480,495" fill="none" stroke="#344150" stroke-width="4" stroke-linejoin="round"/><polyline points="540,410 540,534 270,534 270,580" fill="none" stroke="#f5f7fa" stroke-width="8" stroke-linejoin="round"/><polyline points="540,410 540,534 270,534 270,580" fill="none" stroke="#916acb" stroke-width="4" stroke-linejoin="round"/><text x="770" y="190" font-size="18" fill="#24354a" text-anchor="middle" font-weight="700">SENSOR KANAN</text><rect x="660" y="210" width="220" height="200" rx="12" fill="#245b9b" stroke="none"/><rect x="682" y="232" width="75" height="52" rx="5" fill="#d5dcea" stroke="none"/><rect x="691" y="242" width="56" height="31" rx="3" fill="#667c9a" stroke="none"/><circle cx="720" cy="257" r="13" fill="#b5bfcc"/><rect x="782" y="243" width="72" height="35" rx="3" fill="#142a48" stroke="none"/><text x="770" y="325" font-size="20" fill="#fff" text-anchor="middle" font-weight="700">IR + LM393</text><text x="770" y="354" font-size="15" fill="#c7ddf6" text-anchor="middle" font-weight="400">Modul dengan AO</text><circle cx="700" cy="410" r="5" fill="#dce6ee" stroke="#182436" stroke-width="1.5"/><text x="700" y="398" font-size="14" fill="#fff" text-anchor="middle" font-weight="400">VCC</text><circle cx="760" cy="410" r="5" fill="#dce6ee" stroke="#182436" stroke-width="1.5"/><text x="760" y="398" font-size="14" fill="#fff" text-anchor="middle" font-weight="400">GND</text><circle cx="820" cy="410" r="5" fill="#dce6ee" stroke="#182436" stroke-width="1.5"/><text x="820" y="398" font-size="14" fill="#fff" text-anchor="middle" font-weight="400">AO</text><circle cx="855" cy="410" r="5" fill="#dce6ee" stroke="#182436" stroke-width="1.5"/><text x="855" y="398" font-size="14" fill="#fff" text-anchor="middle" font-weight="400">DO</text><text x="855" y="435" font-size="12" fill="#65768a" text-anchor="middle" font-weight="400">NC</text><polyline points="700,410 700,465" fill="none" stroke="#f5f7fa" stroke-width="8" stroke-linejoin="round"/><polyline points="700,410 700,465" fill="none" stroke="#d94c4c" stroke-width="4" stroke-linejoin="round"/><polyline points="760,410 760,495" fill="none" stroke="#f5f7fa" stroke-width="8" stroke-linejoin="round"/><polyline points="760,410 760,495" fill="none" stroke="#344150" stroke-width="4" stroke-linejoin="round"/><polyline points="820,410 820,548 330,548 330,580" fill="none" stroke="#f5f7fa" stroke-width="8" stroke-linejoin="round"/><polyline points="820,410 820,548 330,548 330,580" fill="none" stroke="#db8a28" stroke-width="4" stroke-linejoin="round"/><polyline points="100,465 1180,465" fill="none" stroke="#f5f7fa" stroke-width="8" stroke-linejoin="round"/><polyline points="100,465 1180,465" fill="none" stroke="#d94c4c" stroke-width="4" stroke-linejoin="round"/><polyline points="100,495 1280,495" fill="none" stroke="#f5f7fa" stroke-width="8" stroke-linejoin="round"/><polyline points="100,495 1280,495" fill="none" stroke="#344150" stroke-width="4" stroke-linejoin="round"/><circle cx="140" cy="465" r="6" fill="#d94c4c"/><circle cx="420" cy="465" r="6" fill="#d94c4c"/><circle cx="700" cy="465" r="6" fill="#d94c4c"/><circle cx="200" cy="495" r="6" fill="#344150"/><circle cx="480" cy="495" r="6" fill="#344150"/><circle cx="760" cy="495" r="6" fill="#344150"/><rect x="1000" y="430" width="110" height="29" rx="5" fill="#fff" stroke="#d94c4c"/><text x="1055" y="451" font-size="14" fill="#d94c4c" text-anchor="middle" font-weight="700">+5V REG</text><polyline points="1055,465 1055,459" fill="none" stroke="#f5f7fa" stroke-width="8" stroke-linejoin="round"/><polyline points="1055,465 1055,459" fill="none" stroke="#d94c4c" stroke-width="4" stroke-linejoin="round"/><rect x="1280" y="480" width="110" height="29" rx="5" fill="#fff" stroke="#344150"/><text x="1335" y="501" font-size="14" fill="#344150" text-anchor="middle" font-weight="700">GND</text><rect x="100" y="580" width="550" height="300" rx="12" fill="#248f9f" stroke="none"/><circle cx="120" cy="600" r="8" fill="#f5f7fa" stroke="#b7cace" stroke-width="3"/><circle cx="120" cy="860" r="8" fill="#f5f7fa" stroke="#b7cace" stroke-width="3"/><circle cx="630" cy="600" r="8" fill="#f5f7fa" stroke="#b7cace" stroke-width="3"/><circle cx="630" cy="860" r="8" fill="#f5f7fa" stroke="#b7cace" stroke-width="3"/><text x="360" y="641" font-size="30" fill="#fff" text-anchor="middle" font-weight="700">ARDUINO</text><text x="360" y="681" font-size="36" fill="#fff" text-anchor="middle" font-weight="700">UNO R3</text><rect x="275" y="724" width="180" height="48" rx="3" fill="#172d39" stroke="none"/><circle cx="210" cy="580" r="5" fill="#dce6ee" stroke="#182436" stroke-width="1.5"/><text x="210" y="605" font-size="14" fill="#fff" text-anchor="middle" font-weight="400">A0</text><circle cx="270" cy="580" r="5" fill="#dce6ee" stroke="#182436" stroke-width="1.5"/><text x="270" y="605" font-size="14" fill="#fff" text-anchor="middle" font-weight="400">A1</text><circle cx="330" cy="580" r="5" fill="#dce6ee" stroke="#182436" stroke-width="1.5"/><text x="330" y="605" font-size="14" fill="#fff" text-anchor="middle" font-weight="400">A2</text><rect x="88" y="704" width="61" height="60" rx="4" fill="#cdd6df" stroke="none"/><text x="165" y="732" font-size="17" fill="#fff" text-anchor="start" font-weight="400">USB-B: 5 V</text><polyline points="100,740 70,740 70,465 100,465" fill="none" stroke="#f5f7fa" stroke-width="8" stroke-linejoin="round"/><polyline points="100,740 70,740 70,465 100,465" fill="none" stroke="#d94c4c" stroke-width="4" stroke-linejoin="round"/><polyline points="100,792 40,792 40,495 100,495" fill="none" stroke="#f5f7fa" stroke-width="8" stroke-linejoin="round"/><polyline points="100,792 40,792 40,495 100,495" fill="none" stroke="#344150" stroke-width="4" stroke-linejoin="round"/><circle cx="100" cy="792" r="5" fill="#dce6ee" stroke="#182436" stroke-width="1.5"/><text x="165" y="796" font-size="17" fill="#fff" text-anchor="start" font-weight="400">GND</text><text x="360" y="823" font-size="15" fill="#d6f2f4" text-anchor="middle" font-weight="400">VIN tidak dipakai</text><rect x="950" y="580" width="300" height="300" rx="12" fill="#ba4949" stroke="none"/><rect x="1020" y="618" width="175" height="110" rx="5" fill="#23303f" stroke="none"/><rect x="1032" y="625" width="8" height="95" rx="1" fill="#405062" stroke="none"/><rect x="1052" y="625" width="8" height="95" rx="1" fill="#405062" stroke="none"/><rect x="1072" y="625" width="8" height="95" rx="1" fill="#405062" stroke="none"/><rect x="1092" y="625" width="8" height="95" rx="1" fill="#405062" stroke="none"/><rect x="1112" y="625" width="8" height="95" rx="1" fill="#405062" stroke="none"/><rect x="1132" y="625" width="8" height="95" rx="1" fill="#405062" stroke="none"/><rect x="1152" y="625" width="8" height="95" rx="1" fill="#405062" stroke="none"/><rect x="1172" y="625" width="8" height="95" rx="1" fill="#405062" stroke="none"/><text x="1100" y="769" font-size="27" fill="#fff" text-anchor="middle" font-weight="700">L298N</text><text x="1100" y="804" font-size="15" fill="#fff" text-anchor="middle" font-weight="400">ENA / ENB: jumper OFF</text><text x="1100" y="832" font-size="15" fill="#fff" text-anchor="middle" font-weight="400">5V-EN: jumper OFF*</text><text x="623" y="589" font-size="16" fill="#fff" text-anchor="end" font-weight="400">D11 ~</text><circle cx="650" cy="600" r="5" fill="#dce6ee" stroke="#182436" stroke-width="1.5"/><polyline points="650,600 950,600" fill="none" stroke="#f5f7fa" stroke-width="8" stroke-linejoin="round"/><polyline points="650,600 950,600" fill="none" stroke="#349b78" stroke-width="4" stroke-linejoin="round"/><circle cx="950" cy="600" r="5" fill="#dce6ee" stroke="#182436" stroke-width="1.5"/><text x="966" y="605" font-size="15" fill="#fff" text-anchor="start" font-weight="400">ENA</text><text x="623" y="633" font-size="16" fill="#fff" text-anchor="end" font-weight="400">D10</text><circle cx="650" cy="644" r="5" fill="#dce6ee" stroke="#182436" stroke-width="1.5"/><polyline points="650,644 950,644" fill="none" stroke="#f5f7fa" stroke-width="8" stroke-linejoin="round"/><polyline points="650,644 950,644" fill="none" stroke="#349b78" stroke-width="4" stroke-linejoin="round"/><circle cx="950" cy="644" r="5" fill="#dce6ee" stroke="#182436" stroke-width="1.5"/><text x="966" y="649" font-size="15" fill="#fff" text-anchor="start" font-weight="400">IN1</text><text x="623" y="677" font-size="16" fill="#fff" text-anchor="end" font-weight="400">D9</text><circle cx="650" cy="688" r="5" fill="#dce6ee" stroke="#182436" stroke-width="1.5"/><polyline points="650,688 950,688" fill="none" stroke="#f5f7fa" stroke-width="8" stroke-linejoin="round"/><polyline points="650,688 950,688" fill="none" stroke="#349b78" stroke-width="4" stroke-linejoin="round"/><circle cx="950" cy="688" r="5" fill="#dce6ee" stroke="#182436" stroke-width="1.5"/><text x="966" y="693" font-size="15" fill="#fff" text-anchor="start" font-weight="400">IN2</text><text x="623" y="721" font-size="16" fill="#fff" text-anchor="end" font-weight="400">D8</text><circle cx="650" cy="732" r="5" fill="#dce6ee" stroke="#182436" stroke-width="1.5"/><polyline points="650,732 950,732" fill="none" stroke="#f5f7fa" stroke-width="8" stroke-linejoin="round"/><polyline points="650,732 950,732" fill="none" stroke="#367ee6" stroke-width="4" stroke-linejoin="round"/><circle cx="950" cy="732" r="5" fill="#dce6ee" stroke="#182436" stroke-width="1.5"/><text x="966" y="737" font-size="15" fill="#fff" text-anchor="start" font-weight="400">IN3</text><text x="623" y="765" font-size="16" fill="#fff" text-anchor="end" font-weight="400">D7</text><circle cx="650" cy="776" r="5" fill="#dce6ee" stroke="#182436" stroke-width="1.5"/><polyline points="650,776 950,776" fill="none" stroke="#f5f7fa" stroke-width="8" stroke-linejoin="round"/><polyline points="650,776 950,776" fill="none" stroke="#367ee6" stroke-width="4" stroke-linejoin="round"/><circle cx="950" cy="776" r="5" fill="#dce6ee" stroke="#182436" stroke-width="1.5"/><text x="966" y="781" font-size="15" fill="#fff" text-anchor="start" font-weight="400">IN4</text><text x="623" y="809" font-size="16" fill="#fff" text-anchor="end" font-weight="400">D6 ~</text><circle cx="650" cy="820" r="5" fill="#dce6ee" stroke="#182436" stroke-width="1.5"/><polyline points="650,820 950,820" fill="none" stroke="#f5f7fa" stroke-width="8" stroke-linejoin="round"/><polyline points="650,820 950,820" fill="none" stroke="#367ee6" stroke-width="4" stroke-linejoin="round"/><circle cx="950" cy="820" r="5" fill="#dce6ee" stroke="#182436" stroke-width="1.5"/><text x="966" y="825" font-size="15" fill="#fff" text-anchor="start" font-weight="400">ENB</text><circle cx="1020" cy="580" r="5" fill="#dce6ee" stroke="#182436" stroke-width="1.5"/><text x="1020" y="606" font-size="14" fill="#fff" text-anchor="middle" font-weight="400">VS</text><circle cx="1110" cy="580" r="5" fill="#dce6ee" stroke="#182436" stroke-width="1.5"/><text x="1110" y="606" font-size="14" fill="#fff" text-anchor="middle" font-weight="400">5V</text><circle cx="1200" cy="580" r="5" fill="#dce6ee" stroke="#182436" stroke-width="1.5"/><text x="1200" y="606" font-size="14" fill="#fff" text-anchor="middle" font-weight="400">GND</text><polyline points="1110,580 1110,465" fill="none" stroke="#f5f7fa" stroke-width="8" stroke-linejoin="round"/><polyline points="1110,580 1110,465" fill="none" stroke="#d94c4c" stroke-width="4" stroke-linejoin="round"/><polyline points="1200,580 1200,495" fill="none" stroke="#f5f7fa" stroke-width="8" stroke-linejoin="round"/><polyline points="1200,580 1200,495" fill="none" stroke="#344150" stroke-width="4" stroke-linejoin="round"/><polyline points="1020,580 1020,560 1032,560" fill="none" stroke="#f5f7fa" stroke-width="8" stroke-linejoin="round"/><polyline points="1020,580 1020,560 1032,560" fill="none" stroke="#db8a28" stroke-width="4" stroke-linejoin="round"/><rect x="1032" y="542" width="110" height="29" rx="5" fill="#fff" stroke="#db8a28"/><text x="1087" y="563" font-size="14" fill="#db8a28" text-anchor="middle" font-weight="700">+6V MOTOR</text><rect x="1380" y="575" width="155" height="115" rx="12" fill="#e9c53c" stroke="none"/><circle cx="1470" cy="630" r="26" fill="#fff1ae" stroke="#a78a23" stroke-width="3"/><text x="1455" y="712" font-size="16" fill="#24354a" text-anchor="middle" font-weight="700">MOTOR KIRI</text><circle cx="1250" cy="600" r="5" fill="#dce6ee" stroke="#182436" stroke-width="1.5"/><text x="1262" y="590" font-size="13" fill="#24354a" text-anchor="start" font-weight="400">OUT1</text><polyline points="1250,600 1380,600" fill="none" stroke="#f5f7fa" stroke-width="8" stroke-linejoin="round"/><polyline points="1250,600 1380,600" fill="none" stroke="#349b78" stroke-width="4" stroke-linejoin="round"/><circle cx="1380" cy="600" r="5" fill="#dce6ee" stroke="#182436" stroke-width="1.5"/><circle cx="1250" cy="644" r="5" fill="#dce6ee" stroke="#182436" stroke-width="1.5"/><text x="1262" y="634" font-size="13" fill="#24354a" text-anchor="start" font-weight="400">OUT2</text><polyline points="1250,644 1380,644" fill="none" stroke="#f5f7fa" stroke-width="8" stroke-linejoin="round"/><polyline points="1250,644 1380,644" fill="none" stroke="#367ee6" stroke-width="4" stroke-linejoin="round"/><circle cx="1380" cy="644" r="5" fill="#dce6ee" stroke="#182436" stroke-width="1.5"/><rect x="1380" y="751" width="155" height="115" rx="12" fill="#e9c53c" stroke="none"/><circle cx="1470" cy="806" r="26" fill="#fff1ae" stroke="#a78a23" stroke-width="3"/><text x="1455" y="888" font-size="16" fill="#24354a" text-anchor="middle" font-weight="700">MOTOR KANAN</text><circle cx="1250" cy="776" r="5" fill="#dce6ee" stroke="#182436" stroke-width="1.5"/><text x="1262" y="766" font-size="13" fill="#24354a" text-anchor="start" font-weight="400">OUT3</text><polyline points="1250,776 1380,776" fill="none" stroke="#f5f7fa" stroke-width="8" stroke-linejoin="round"/><polyline points="1250,776 1380,776" fill="none" stroke="#349b78" stroke-width="4" stroke-linejoin="round"/><circle cx="1380" cy="776" r="5" fill="#dce6ee" stroke="#182436" stroke-width="1.5"/><circle cx="1250" cy="820" r="5" fill="#dce6ee" stroke="#182436" stroke-width="1.5"/><text x="1262" y="810" font-size="13" fill="#24354a" text-anchor="start" font-weight="400">OUT4</text><polyline points="1250,820 1380,820" fill="none" stroke="#f5f7fa" stroke-width="8" stroke-linejoin="round"/><polyline points="1250,820 1380,820" fill="none" stroke="#367ee6" stroke-width="4" stroke-linejoin="round"/><circle cx="1380" cy="820" r="5" fill="#dce6ee" stroke="#182436" stroke-width="1.5"/><text x="100" y="938" font-size="24" fill="#24354a" text-anchor="start" font-weight="700">DAYA / Semua GND tersambung</text><rect x="100" y="974" width="310" height="230" rx="12" fill="#293849" stroke="none"/><rect x="122" y="1005" width="63" height="141" rx="20" fill="#769cca" stroke="none"/><text x="153" y="1080" font-size="15" fill="#fff" text-anchor="middle" font-weight="400">18650</text><rect x="203" y="1005" width="63" height="141" rx="20" fill="#769cca" stroke="none"/><text x="234" y="1080" font-size="15" fill="#fff" text-anchor="middle" font-weight="400">18650</text><text x="320" y="1035" font-size="27" fill="#fff" text-anchor="middle" font-weight="700">2S</text><text x="320" y="1070" font-size="21" fill="#fff" text-anchor="middle" font-weight="400">7,4 V</text><text x="320" y="1099" font-size="13" fill="#d3e3f4" text-anchor="middle" font-weight="400">8,4 V penuh</text><text x="255" y="1180" font-size="16" fill="#fff" text-anchor="middle" font-weight="400">Paket dengan proteksi 2S</text><polyline points="410,1010 460,1010" fill="none" stroke="#f5f7fa" stroke-width="8" stroke-linejoin="round"/><polyline points="410,1010 460,1010" fill="none" stroke="#d94c4c" stroke-width="4" stroke-linejoin="round"/><path d="M460 1010 L475 1010 M475 1010 L510 992 M515 1010 L535 1010" stroke="#344150" stroke-width="4" fill="none"/><text x="480" y="972" font-size="15" fill="#24354a" text-anchor="middle" font-weight="400">SW1</text><polyline points="535,1010 555,1010 555,1135" fill="none" stroke="#f5f7fa" stroke-width="8" stroke-linejoin="round"/><polyline points="535,1010 555,1010 555,1135" fill="none" stroke="#d94c4c" stroke-width="4" stroke-linejoin="round"/><polyline points="410,1160 540,1160 540,1060 615,1060" fill="none" stroke="#f5f7fa" stroke-width="8" stroke-linejoin="round"/><polyline points="410,1160 540,1160 540,1060 615,1060" fill="none" stroke="#344150" stroke-width="4" stroke-linejoin="round"/><polyline points="540,1160 540,1175 615,1175" fill="none" stroke="#f5f7fa" stroke-width="8" stroke-linejoin="round"/><polyline points="540,1160 540,1175 615,1175" fill="none" stroke="#344150" stroke-width="4" stroke-linejoin="round"/><rect x="420" y="1175" width="110" height="29" rx="5" fill="#fff" stroke="#344150"/><text x="475" y="1196" font-size="14" fill="#344150" text-anchor="middle" font-weight="700">GND</text><rect x="615" y="985" width="310" height="90" rx="12" fill="#608e82" stroke="none"/><text x="770" y="1019" font-size="23" fill="#fff" text-anchor="middle" font-weight="700">BUCK → 5 V</text><text x="770" y="1050" font-size="13" fill="#e7f2ed" text-anchor="middle" font-weight="400">Set sebelum koneksi</text><text x="639" y="1014" font-size="12" fill="#fff" text-anchor="start" font-weight="400">IN+</text><text x="639" y="1064" font-size="12" fill="#fff" text-anchor="start" font-weight="400">IN−</text><text x="902" y="1014" font-size="12" fill="#fff" text-anchor="end" font-weight="400">OUT+</text><text x="902" y="1064" font-size="12" fill="#fff" text-anchor="end" font-weight="400">OUT−</text><polyline points="555,1010 615,1010" fill="none" stroke="#f5f7fa" stroke-width="8" stroke-linejoin="round"/><polyline points="555,1010 615,1010" fill="none" stroke="#d94c4c" stroke-width="4" stroke-linejoin="round"/><circle cx="615" cy="1010" r="5" fill="#dce6ee" stroke="#182436" stroke-width="1.5"/><polyline points="925,1010 970,1010" fill="none" stroke="#f5f7fa" stroke-width="8" stroke-linejoin="round"/><polyline points="925,1010 970,1010" fill="none" stroke="#d94c4c" stroke-width="4" stroke-linejoin="round"/><rect x="970" y="992" width="110" height="29" rx="5" fill="#fff" stroke="#d94c4c"/><text x="1025" y="1013" font-size="14" fill="#d94c4c" text-anchor="middle" font-weight="700">+5V REG</text><circle cx="615" cy="1060" r="5" fill="#dce6ee" stroke="#182436" stroke-width="1.5"/><circle cx="925" cy="1060" r="5" fill="#dce6ee" stroke="#182436" stroke-width="1.5"/><rect x="967" y="1042" width="110" height="29" rx="5" fill="#fff" stroke="#344150"/><text x="1022" y="1063" font-size="14" fill="#344150" text-anchor="middle" font-weight="700">GND</text><polyline points="925,1060 967,1060" fill="none" stroke="#f5f7fa" stroke-width="8" stroke-linejoin="round"/><polyline points="925,1060 967,1060" fill="none" stroke="#344150" stroke-width="4" stroke-linejoin="round"/><rect x="615" y="1100" width="310" height="90" rx="12" fill="#608e82" stroke="none"/><text x="770" y="1134" font-size="23" fill="#fff" text-anchor="middle" font-weight="700">BUCK → 6 V</text><text x="770" y="1165" font-size="13" fill="#e7f2ed" text-anchor="middle" font-weight="400">Set sebelum koneksi</text><text x="639" y="1129" font-size="12" fill="#fff" text-anchor="start" font-weight="400">IN+</text><text x="639" y="1179" font-size="12" fill="#fff" text-anchor="start" font-weight="400">IN−</text><text x="902" y="1129" font-size="12" fill="#fff" text-anchor="end" font-weight="400">OUT+</text><text x="902" y="1179" font-size="12" fill="#fff" text-anchor="end" font-weight="400">OUT−</text><polyline points="555,1125 615,1125" fill="none" stroke="#f5f7fa" stroke-width="8" stroke-linejoin="round"/><polyline points="555,1125 615,1125" fill="none" stroke="#d94c4c" stroke-width="4" stroke-linejoin="round"/><circle cx="615" cy="1125" r="5" fill="#dce6ee" stroke="#182436" stroke-width="1.5"/><polyline points="925,1125 970,1125" fill="none" stroke="#f5f7fa" stroke-width="8" stroke-linejoin="round"/><polyline points="925,1125 970,1125" fill="none" stroke="#db8a28" stroke-width="4" stroke-linejoin="round"/><rect x="970" y="1107" width="110" height="29" rx="5" fill="#fff" stroke="#db8a28"/><text x="1025" y="1128" font-size="14" fill="#db8a28" text-anchor="middle" font-weight="700">+6V MOTOR</text><circle cx="615" cy="1175" r="5" fill="#dce6ee" stroke="#182436" stroke-width="1.5"/><circle cx="925" cy="1175" r="5" fill="#dce6ee" stroke="#182436" stroke-width="1.5"/><rect x="967" y="1157" width="110" height="29" rx="5" fill="#fff" stroke="#344150"/><text x="1022" y="1178" font-size="14" fill="#344150" text-anchor="middle" font-weight="700">GND</text><polyline points="925,1175 967,1175" fill="none" stroke="#f5f7fa" stroke-width="8" stroke-linejoin="round"/><polyline points="925,1175 967,1175" fill="none" stroke="#344150" stroke-width="4" stroke-linejoin="round"/><circle cx="555" cy="1010" r="5" fill="#d94c4c"/><circle cx="555" cy="1125" r="5" fill="#d94c4c"/><circle cx="540" cy="1060" r="5" fill="#344150"/><circle cx="540" cy="1160" r="5" fill="#344150"/><polyline points="475,1160 475,1175" fill="none" stroke="#f5f7fa" stroke-width="8" stroke-linejoin="round"/><polyline points="475,1160 475,1175" fill="none" stroke="#344150" stroke-width="4" stroke-linejoin="round"/><text x="1140" y="996" font-size="18" fill="#24354a" text-anchor="start" font-weight="700">REGULASI TERPISAH</text><text x="1140" y="1030" font-size="16" fill="#24354a" text-anchor="start" font-weight="400">5 V → USB Uno, sensor, logika L298N</text><text x="1140" y="1061" font-size="16" fill="#24354a" text-anchor="start" font-weight="400">6 V → VS L298N untuk kanal motor</text><text x="1140" y="1092" font-size="16" fill="#24354a" text-anchor="start" font-weight="400">Sesuaikan VS dengan rating motor.</text><text x="1140" y="1123" font-size="16" fill="#d94c4c" text-anchor="start" font-weight="400">Jangan hubungkan baterai ke 5V Uno.</text><text x="1140" y="1160" font-size="14" fill="#65768a" text-anchor="start" font-weight="400">*Cek fungsi jumper pada modul sendiri.</text><text x="70" y="1255" font-size="17" fill="#24354a" text-anchor="start" font-weight="400">● Titik = tersambung  |  Persilangan tanpa titik = tidak tersambung  |  NC = tidak dipakai</text><text x="70" y="1290" font-size="16" fill="#24354a" text-anchor="start" font-weight="400">~ = PWM   |   Sensor harus punya AO. Modul DO-only membutuhkan pembacaan digital dan kode berbeda.</text><text x="70" y="1320" font-size="15" fill="#65768a" text-anchor="start" font-weight="400">Pin motor mengikuti sketch bang-bang asli (kiri EN11, kanan EN6); label sisi simulator memakai pemetaan berbeda.</text></g></svg>